HIERARCHY
ROOT Hips
{
	OFFSET 0.000000 0.000000 0.000000
	CHANNELS 6 Xposition Yposition Zposition Zrotation Yrotation Xrotation 
	JOINT LHipJoint
	{
		OFFSET 0.000000 0.000000 0.000000
		CHANNELS 3 Zrotation Yrotation Xrotation
		JOINT LeftUpLeg
		{
			OFFSET 1.363060 -1.794630 0.839290
			CHANNELS 3 Zrotation Yrotation Xrotation
			JOINT LeftLeg
			{
				OFFSET 2.448110 -6.726130 0.000000
				CHANNELS 3 Zrotation Yrotation Xrotation
				JOINT LeftFoot
				{
					OFFSET 2.562200 -7.039590 0.000000
					CHANNELS 3 Zrotation Yrotation Xrotation
					JOINT LeftToeBase
					{
						OFFSET 0.157640 -0.433110 2.322550
						CHANNELS 3 Zrotation Yrotation Xrotation
						End Site
						{
							OFFSET 0.000000 0.000000 0.000000
						}
					}
				}
			}
		}
	}
	JOINT RHipJoint
	{
		OFFSET 0.000000 0.000000 0.000000
		CHANNELS 3 Zrotation Yrotation Xrotation
		JOINT RightUpLeg
		{
			OFFSET -1.305520 -1.794630 0.839290
			CHANNELS 3 Zrotation Yrotation Xrotation
			JOINT RightLeg
			{
				OFFSET -2.542530 -6.985550 0.000000
				CHANNELS 3 Zrotation Yrotation Xrotation
				JOINT RightFoot
				{
					OFFSET -2.568260 -7.056230 0.000000
					CHANNELS 3 Zrotation Yrotation Xrotation
					JOINT RightToeBase
					{
						OFFSET -0.164730 -0.452590 2.363150
						CHANNELS 3 Zrotation Yrotation Xrotation
						End Site
						{
							OFFSET 0.000000 0.000000 0.000000
						}
					}
				}
			}
		}
	}
	JOINT LowerBack
	{
		OFFSET 0.000000 0.000000 0.000000
		CHANNELS 3 Zrotation Yrotation Xrotation
		JOINT Spine
		{
			OFFSET 0.028270 2.035590 -0.193380
			CHANNELS 3 Zrotation Yrotation Xrotation
			JOINT Spine1
			{
				OFFSET 0.056720 2.048850 -0.042750
				CHANNELS 3 Zrotation Yrotation Xrotation
				JOINT Neck
				{
					OFFSET 0.000000 0.000000 0.000000
					CHANNELS 3 Zrotation Yrotation Xrotation
					JOINT Neck1
					{
						OFFSET -0.054170 1.746240 0.172020
						CHANNELS 3 Zrotation Yrotation Xrotation
						JOINT Head
						{
							OFFSET 0.104070 1.761360 -0.123970
							CHANNELS 3 Zrotation Yrotation Xrotation
							End Site
							{
								OFFSET 0.000000 0.000000 0.000000
							}
						}
					}
				}
				JOINT LeftShoulder
				{
					OFFSET 0.000000 0.000000 0.000000
					CHANNELS 3 Zrotation Yrotation Xrotation
					JOINT LeftArm
					{
						OFFSET 3.362410 1.200890 -0.311210
						CHANNELS 3 Zrotation Yrotation Xrotation
						JOINT LeftForeArm
						{
							OFFSET 4.983000 -0.000000 -0.000000
							CHANNELS 3 Zrotation Yrotation Xrotation
							JOINT LeftHand
							{
								OFFSET 3.483560 -0.000000 -0.000000
								CHANNELS 3 Zrotation Yrotation Xrotation
								JOINT LeftFingerBase
								{
									OFFSET 0.000000 0.000000 0.000000
									CHANNELS 3 Zrotation Yrotation Xrotation
									JOINT LeftHandIndex1
									{
										OFFSET 0.715260 -0.000000 -0.000000
										CHANNELS 3 Zrotation Yrotation Xrotation
										End Site
										{
											OFFSET 0.000000 0.000000 0.000000
										}
									}
								}
								JOINT LThumb
								{
									OFFSET 0.000000 0.000000 0.000000
									CHANNELS 3 Zrotation Yrotation Xrotation
									End Site
									{
										OFFSET 0.000000 0.000000 0.000000
									}
								}
							}
						}
					}
				}
				JOINT RightShoulder
				{
					OFFSET 0.000000 0.000000 0.000000
					CHANNELS 3 Zrotation Yrotation Xrotation
					JOINT RightArm
					{
						OFFSET -3.136600 1.374050 -0.404650
						CHANNELS 3 Zrotation Yrotation Xrotation
						JOINT RightForeArm
						{
							OFFSET -5.241900 -0.000000 -0.000000
							CHANNELS 3 Zrotation Yrotation Xrotation
							JOINT RightHand
							{
								OFFSET -3.444170 -0.000000 -0.000000
								CHANNELS 3 Zrotation Yrotation Xrotation
								JOINT RightFingerBase
								{
									OFFSET 0.000000 0.000000 0.000000
									CHANNELS 3 Zrotation Yrotation Xrotation
									JOINT RightHandIndex1
									{
										OFFSET -0.622530 -0.000000 -0.000000
										CHANNELS 3 Zrotation Yrotation Xrotation
										End Site
										{
											OFFSET 0.000000 0.000000 0.000000
										}
									}
								}
								JOINT RThumb
								{
									OFFSET 0.000000 0.000000 0.000000
									CHANNELS 3 Zrotation Yrotation Xrotation
									End Site
									{
										OFFSET 0.000000 0.000000 0.000000
									}
								}
							}
						}
					}
				}
			}
		}
	}
}
MOTION
Frames: 11
Frame Time: 0.008333
25.610996 6.212548 35.140517 -166.771205 29.912499 46.186091 5.176660 -26.945637 -83.284180 61.873474 5.879555 7.468308 167.630678 18.568618 -51.545376 -11.092194 79.626373 29.443823 0.128100 -2.307300 -6.355600 -104.313102 5.999105 132.665767 69.727807 -79.914185 85.397256 28.682885 5.590593 -72.603499 178.548521 66.184666 -179.230002 -0.118400 2.218100 -6.108700 -40.012300 -57.076904 18.284678 76.312362 79.587922 -114.512652 -0.293754 -27.479463 38.651855 67.561927 -17.929406 14.501136 -24.764223 -14.209829 -14.887551 -2.726500 3.030300 18.329300 -170.277039 39.924981 -141.870759 60.786349 -46.343132 -162.799415 -43.394356 4.872218 120.165374 28.872195 2.406940 1.419128 83.672903 40.706655 39.173400 -7.125000 0.000000 0.000000 51.604000 72.581800 36.322500 155.417057 15.700779 10.960900 -156.090636 -63.918169 -176.467013 153.120946 60.831028 -6.379660 -55.148581 7.706858 23.412061 -58.420610 -15.183028 -0.193699 7.125000 0.000000 0.000000 23.658500 -32.905100 7.579400 
25.616171 6.211458 35.135069 87.984058 41.535867 -129.738120 -162.359668 14.219549 -100.417484 -66.147037 -49.178558 39.142756 137.234221 -63.237516 136.512762 80.458011 -89.022689 -84.662166 0.126900 -2.295900 -6.324300 -35.291257 -52.154780 -123.735560 56.173361 -41.733416 -69.334971 160.640433 -8.819571 -52.909523 -79.644001 -16.482081 -51.760601 -0.124200 2.272200 -6.258600 -19.671855 -48.272049 10.011376 15.101600 77.788574 19.202600 68.886747 -3.754706 -34.825186 -127.325197 -15.152079 -66.580111 -113.286332 -86.850033 -79.388381 -2.734200 3.036300 18.329800 -125.626574 -40.228941 -12.802306 109.733427 -85.104569 112.648999 49.583787 50.628961 -56.121551 53.780101 35.256500 1.999152 106.738299 50.056949 39.128400 -7.125000 0.000000 0.000000 51.505700 72.525500 36.187900 -108.079133 53.391737 -109.202550 150.923831 -44.559800 67.442772 -178.493998 55.519245 158.145597 -44.066838 21.012846 14.809727 -50.283193 -1.813490 -0.181199 7.125000 0.000000 0.000000 23.556400 -32.789600 7.613400 
25.620257 6.210096 35.129621 93.712318 17.180803 -97.781917 -155.144012 -67.167551 -110.539900 41.850329 64.931291 10.153743 -156.877649 88.342251 -92.846454 175.221739 2.022589 6.951232 0.124200 -2.272100 -6.258200 -118.989452 -23.281199 150.437645 102.471879 56.529199 -27.929362 -167.509961 -0.038205 -177.446407 131.409588 -69.144839 109.699012 -0.127400 2.301000 -6.338300 -68.528425 -8.009440 90.460444 127.702978 24.953336 54.938358 -157.781831 65.399067 -123.114827 88.027535 -69.317870 -105.765835 115.770660 -77.151587 -179.640008 -2.743300 3.027400 18.313800 -29.276386 -33.301960 -91.172661 52.151561 81.809015 -123.422244 32.680788 -28.794824 -49.015039 58.178287 11.837265 2.044720 106.380663 56.750713 39.228100 -7.125000 0.000000 0.000000 51.749400 72.604000 36.461100 7.199750 42.533277 34.665072 134.415121 -58.544798 39.589938 45.912802 -68.167076 -5.248558 -67.611227 52.868013 -3.486516 -101.313313 -16.861647 -0.177399 7.125000 0.000000 0.000000 23.521400 -32.763400 7.616600 
25.624071 6.210369 35.126897 67.384107 34.117224 -132.074470 -74.583164 6.111579 173.433927 -48.995964 -70.628757 139.917524 -117.798318 77.592009 -82.619141 -90.973910 -69.207953 -83.529531 0.122800 -2.259200 -6.222400 -179.735852 58.089621 -0.764355 -35.773240 82.595646 -19.836621 -23.227029 -15.337989 111.368975 70.317122 -67.756349 98.615946 -0.146400 2.466200 -6.795800 -62.752273 -28.597551 14.569570 -22.132303 36.625560 -98.607989 -133.684821 62.491294 -49.698062 -106.719674 84.830555 -134.689921 21.601979 60.443926 -1.795852 -2.564600 2.598000 18.810800 66.655658 -43.491583 147.439942 134.411529 52.070262 62.783547 -159.954814 56.300466 -14.773832 52.636131 -39.662040 46.870930 118.145479 -11.141287 39.256300 -7.125000 0.000000 0.000000 51.827200 72.611200 36.530700 -143.499391 -63.727201 -148.384186 -125.496243 82.946493 130.439742 95.508652 40.253234 118.459845 -48.374544 -0.257402 33.067674 -36.548233 12.571387 -0.181501 7.125000 0.000000 0.000000 23.519600 -32.903900 7.528300 
25.634694 6.209279 35.120087 -55.914636 58.876892 38.564862 -86.337345 39.571415 46.869444 116.545852 60.770637 -35.719933 -143.780394 88.308899 -74.942392 -20.458001 5.851866 -162.709145 0.113100 -2.168000 -5.970000 12.525720 78.390751 31.566078 -133.922868 75.920983 152.768259 62.476261 -14.563510 108.426277 -178.117824 -15.295585 148.055050 -0.169200 2.650300 -7.306500 -47.953227 -13.580034 51.346393 138.464427 19.642662 75.734715 72.587786 -2.828097 110.697282 -29.117827 -3.164497 87.845904 92.990421 -53.538776 150.846447 -2.561400 2.596700 18.820100 15.935866 -19.683769 96.021665 -162.201179 13.511115 -150.045455 -124.614939 88.987745 -42.165172 27.256310 -31.594568 -2.501510 93.953200 44.250320 39.374300 -7.125000 0.000000 0.000000 52.137700 72.666600 36.835600 33.224339 -77.579819 160.037092 9.635618 78.865892 32.064229 4.259877 -12.146682 -38.369565 -4.894806 30.487105 -19.362548 -19.940212 -25.542461 -0.179401 7.125000 0.000000 0.000000 23.524200 -32.819600 7.582500 
25.630064 6.204104 35.114094 8.675260 -61.956600 -104.001419 -115.072863 18.642782 -126.714403 26.012476 37.954795 -98.606714 104.523452 -70.436110 -38.863324 -13.620001 -28.217814 -152.124922 0.112600 -2.163600 -5.958000 107.666537 6.283852 66.263670 100.430344 71.346876 -165.500177 131.893289 -21.670592 -16.828393 28.747120 8.067663 -96.095850 -0.187500 2.788900 -7.691500 77.173755 -79.089334 -45.643905 -18.827764 -19.328133 -139.030294 -152.171445 41.028896 90.234908 68.161610 -30.804629 -111.103677 94.275721 -10.907258 160.936727 -2.576700 2.596900 18.821300 157.004943 -2.059531 -144.461350 -85.064752 -11.837790 148.179953 162.034281 79.235117 128.096525 68.413583 -4.233778 17.960740 131.953268 19.637247 39.394600 -7.125000 0.000000 0.000000 52.197300 72.664900 36.881800 150.456162 -56.761311 -74.145255 -144.465973 -16.610578 171.226203 9.296515 -53.012298 168.676225 -36.500497 15.891426 20.264714 -38.978953 -2.093232 -0.117501 7.125000 0.000000 0.000000 23.068200 -31.928700 7.954200 
25.637963 6.203014 35.108374 -81.099239 57.192010 -18.129538 119.506639 -32.901182 83.242361 -43.522533 -3.283377 11.603200 -87.236552 56.927781 133.058721 140.422999 -12.819883 44.738916 0.114400 -2.180900 -6.005900 138.088323 -9.738266 120.264772 -147.218499 32.316502 137.868991 -164.060768 -69.249162 -32.135437 -133.359951 -23.265099 -147.804848 -0.194400 2.839600 -7.832500 -148.740954 76.920294 131.527100 -136.186359 33.802157 5.764458 114.697194 -35.200682 -105.568535 -68.180841 -6.738839 -154.085313 71.400346 9.821197 -134.377670 -2.565500 2.597100 18.816700 16.543442 34.403436 124.074401 -163.800570 -78.106415 49.584222 -68.097105 56.648714 134.504074 48.378917 -5.477266 24.628354 103.318182 23.772008 39.768699 -7.125000 0.000000 0.000000 53.154500 72.919900 37.913000 -70.795511 -30.838160 160.633349 -162.941771 -89.298413 5.581010 72.368998 22.549873 166.394510 -5.927942 -7.359820 16.995048 -3.477666 -15.662569 -0.110500 7.125000 0.000000 0.000000 22.992600 -31.852800 7.970000 
25.643139 6.202469 35.105377 98.105851 -50.022256 -116.400656 -39.677754 2.280714 96.087789 71.356958 87.479717 -26.399747 43.607059 81.741514 48.478697 -28.123616 51.293931 105.190568 0.112300 -2.160600 -5.949800 33.699683 9.721180 38.386187 -99.136600 81.990400 -46.098960 114.643154 -9.357894 -155.177725 87.885444 83.805127 -128.380632 -0.165200 2.618600 -7.218600 29.878800 -10.901787 30.178902 25.047164 7.878876 4.347079 14.564097 -58.165200 -113.204406 -137.034227 -58.035041 -158.005950 -88.016631 -42.469033 -75.271912 -2.573700 2.596100 18.830400 -103.973493 -79.529566 74.294554 -68.559890 34.525903 102.901494 -14.913056 -76.864271 -75.347968 47.583157 7.750041 -3.327180 108.128249 42.461863 39.348000 -7.125000 0.000000 0.000000 52.059200 72.671900 36.777600 87.474408 33.900133 31.029699 159.814201 25.972828 -146.727565 -153.711794 -71.597378 157.043324 -23.060904 12.949065 12.704231 -25.184239 -4.151449 -0.114300 7.125000 0.000000 0.000000 23.006200 -31.950000 7.916500 
25.651038 6.201380 35.098568 98.214958 15.619134 -129.189801 143.802281 85.254101 16.442414 -124.517081 75.770795 -43.352099 36.910516 75.387022 -167.125036 35.775136 -76.713380 69.985535 0.118100 -2.215800 -6.102400 -124.851142 -41.387489 -108.893221 46.248598 47.779832 142.676287 80.617817 75.050932 -26.204525 157.480507 6.715501 -100.691371 -0.145600 2.459200 -6.776600 -72.552007 -58.078868 63.264329 -76.544099 -24.812388 -176.347211 -165.076252 -27.159142 69.769973 110.196658 14.131474 116.123534 -16.651809 -15.241593 -6.582195 -2.593900 2.587300 18.837900 -59.504258 32.033025 31.877627 16.479547 -76.210087 142.535543 73.582473 -19.887733 -80.472580 37.070165 17.810661 -6.291376 101.157814 48.061471 39.761200 -7.125000 0.000000 0.000000 53.133100 72.918800 37.894500 -165.369925 58.595973 100.779309 -93.278855 -20.487616 176.724150 -51.101537 -27.177936 -167.370284 -54.951656 71.268037 27.151575 -72.194431 35.910288 -0.114399 7.125000 0.000000 0.000000 23.044300 -31.877100 7.976000 
25.653490 6.200290 35.093937 147.239024 -37.602534 96.436224 1.703095 72.961883 42.768554 -172.771405 28.079778 -111.445300 -126.747770 -19.304393 -146.971964 -16.617442 -29.253379 -29.526319 0.121000 -2.242700 -6.177000 -81.687288 21.654213 104.458659 76.469535 -15.037197 46.612480 46.068109 -17.950154 -119.975984 159.447558 88.342663 -79.429180 -0.172400 2.674800 -7.374600 171.536106 -4.784532 61.407583 -86.060750 67.080280 -36.330946 78.014491 -30.533128 -15.720581 -63.628785 9.405600 -104.085580 144.754695 30.535851 -150.358149 -2.571200 2.593400 18.841600 162.390538 2.347962 -99.903490 -58.274487 74.631233 -174.018769 67.357224 74.467705 -46.156622 72.899662 -3.944872 32.050854 126.301348 5.611172 39.546899 -7.125000 0.000000 0.000000 52.588800 72.760100 37.293300 -86.307455 -54.775256 8.346579 -37.255647 -48.848142 -168.528050 28.181279 -27.360014 -13.427691 32.522696 -2.661958 18.099832 41.654235 16.048571 -0.116095 7.125000 0.000000 0.000000 23.086900 -31.848400 8.010600 
25.655941 6.198111 35.087127 -57.345908 63.469890 136.556693 -127.047566 -22.328185 138.019949 24.576223 -82.720535 -103.546506 81.524025 1.755226 99.741443 3.435472 32.167558 -85.401544 0.122400 -2.255500 -6.212300 -163.309396 -20.085503 -72.709336 -146.002979 -79.625406 100.912313 90.342010 60.913386 154.874761 -177.801955 -56.654062 -122.281983 -0.169200 2.649700 -7.305000 41.584754 -80.479059 174.587099 101.259301 67.672344 -117.105742 -13.464881 41.049047 -28.198364 -60.993103 -21.678829 10.197824 67.129972 -84.703806 -68.300319 -2.584500 2.592200 18.842600 155.069689 10.633662 -31.835753 152.044200 -40.585505 79.336858 -101.255692 29.151167 -48.489114 35.093645 12.861246 47.268804 93.283010 -8.888486 39.734500 -7.125000 0.000000 0.000000 53.076900 72.873900 37.803600 40.366630 51.632679 107.210159 98.312127 56.866224 -179.239695 -146.060188 38.539091 14.547939 -98.453536 8.522554 34.739518 -103.241972 -16.840923 -0.120601 7.125000 0.000000 0.000000 23.108500 -31.944900 7.960500 
